<?xml version="1.0" encoding="utf-8"?>
<!DOCTYPE svg PUBLIC "-//W3C//DTD SVG 1.1//EN" "http://www.w3.org/Graphics/SVG/1.1/DTD/svg11.dtd">
<svg version="1.1" xmlns="http://www.w3.org/2000/svg" xmlns:xlink="http://www.w3.org/1999/xlink" x="0px" y="0px"
	 width="16px" height="16px" viewBox="0 0 60 60" enable-background="new 0 0 60 60" xml:space="preserve">
<path fill="#FFFFFF" d="M29.562,0.921c-14.083,0-25.541,11.457-25.541,25.541c0,13.554,10.614,24.671,23.967,25.487l0.021,7.431l21.086-12.255
	L27.941,34.99l0.025,9.032c-8.979-0.81-16.04-8.374-16.04-17.561c0-9.725,7.912-17.636,17.636-17.636s17.636,7.912,17.636,17.636
	c0,3.489-1.042,6.903-2.961,9.784l6.765,4.148c0.103-0.169,0.569-0.971,0.668-1.143c2.232-3.864,3.432-8.284,3.432-12.788
	C55.103,12.378,43.646,0.921,29.562,0.921z"/>
</svg>
