<svg xmlns="http://www.w3.org/2000/svg" xmlns:xlink="http://www.w3.org/1999/xlink"
     width="20px" height="20px">
    <g
        id="config-menu"
        fill="#808080"
        transform="scale(0.016)">

        <path d="M433 988 c-4 -7 -10 -33 -13 -58 -5 -43 -7 -46 -62 -73 -53 -27 -58
        -28 -85 -13 -16 8 -35 22 -42 30 -21 25 -44 19 -84 -22 -40 -41 -46 -62 -21
        -83 8 -7 22 -26 30 -42 15 -27 14 -32 -13 -85 -27 -55 -30 -57 -73 -62 -65 -8
        -70 -13 -70 -80 0 -67 5 -72 70 -80 43 -5 46 -7 73 -62 27 -53 28 -58 13 -85
        -8 -16 -22 -35 -30 -42 -25 -21 -19 -44 22 -84 41 -40 62 -46 83 -21 7 8 25
        22 41 30 26 14 32 13 86 -13 55 -27 57 -30 62 -73 8 -65 13 -70 79 -70 68 0
        78 9 83 70 3 44 5 46 58 72 61 30 81 28 121 -8 34 -33 49 -30 92 14 40 41 46
        62 21 83 -8 7 -22 26 -30 42 -15 27 -14 32 13 85 27 55 30 57 73 62 65 8 70
        13 70 80 0 67 -5 72 -70 80 -43 5 -46 7 -73 62 -27 53 -28 58 -13 85 8 16 22
        35 30 42 25 21 19 44 -22 84 -41 40 -62 46 -83 21 -7 -8 -26 -22 -42 -30 -27
        -15 -32 -14 -85 13 -55 27 -57 29 -60 73 -2 24 -8 50 -14 57 -14 17 -124 17
        -135 1z m175 -330 c118 -79 105 -266 -23 -328 -61 -30 -137 -25 -193 13 -116
        76 -105 263 20 326 59 30 140 25 196 -11z"/>
    </g>
</svg>