<svg version="1.1" xmlns="http://www.w3.org/2000/svg" xmlns:xlink="http://www.w3.org/1999/xlink"
	 width="23px" height="20px" viewBox="0 0 45 40" style="fill:#D7BF50;">
	<g>
		<path d="M14.33,17.66c0.56-0.9,1.26-1.8,2.11-2.68c0.84-0.88,1.86-1.68,3.05-2.4
			c1.19-0.71,2.34-1.3,3.92-1.78s3.1-0.76,5.15-0.85V2.087l15.89,12.14L28.57,26.19v-8.68
			c-0.52,0-0.91,0.02-1.76,0.05c-0.85,0.03-1.8,0.13-2.85,0.28c-1.04,0.15-1.9,0.38-3.06,0.69
			c-1.15,0.31-2.28,0.73-3.39,1.28c-1.11,0.55-2.16,1.15-3.14,1.97c-0.99,0.82-1.82,1.82-2.52,3
			C12.19,22.1,13.02,19.79,14.33,17.66z"/>
		<path d="M35.45,24.46v4.1c0,2.66-2.17,4.83-4.83,4.83H8.89c-2.66,0-4.83-2.17-4.83-4.89
			V15.1c0-2.66,2.17-4.83,4.83-4.83h9.08c0.04-0.02,0.07-0.05,0.11-0.07c1.17-0.7,2.52-1.42,4.4-2H8.89
			c-3.81,0-6.9,3.09-6.9,6.9v13.45c0,3.81,3.09,6.9,6.9,6.9h21.73c3.81,0,6.9-3.09,6.9-6.9v-5.66
			L35.45,24.46z"/>
	</g>
</svg>
